{"title":"Game Of Thrones Complete Season 6 1080P WEB-DL DD5 1 H 264","uid":15123429,"size":21653313047,"categoryP":"video","categoryS":"hd___tv_shows","magnet":"?xt=urn:btih:e776397110ff92a28830f9570c38a6ee1c5da304&amp;dn=Game+Of+Thrones+Complete+Season+6+1080P+WEB-DL+DD5+1+H+264&amp;tr=udp%3A%2F%2Ftracker.leechers-paradise.org%3A6969&amp;tr=udp%3A%2F%2Fzer0day.ch%3A1337&amp;tr=udp%3A%2F%2Fopen.demonii.com%3A1337&amp;tr=udp%3A%2F%2Ftracker.coppersurfer.tk%3A6969&amp;tr=udp%3A%2F%2Fexodus.desync.com%3A6969","seeders":7,"leechers":5,"uploader":"jmanwf","files":10,"time":1467091904,"description":"description\r\nFamiliar faces will forge new alliances to bolster their strategic chances at survival...while new characters will emerge to challenge the balance of power in Season 6 of the blockbuster HBO series. In the wake of the shocking developments from Season 5--Jon Snow's bloody fate at the hands of the Castle Black mutineers; Stannis' defeat at the hands of the Bolton army...and death courtesy of Brienne of Tarth; Daenerys' near-demise at the fighting pits of Meereen; and Cersei's public humiliation in King's Landing--survivors regroup and press forward towards their uncertain fates. The all-star ensemble cast includes: Peter Dinklage, Lena Headey, Emilia Clarke, Nikolaj Coster-Waldau and Aidan Gillen\r\n\r\n\r\nALL 10 Episodes of Season 6\r\n\r\n\r\nALL IN MKV\r\n\r\n\r\n\r\nVideo\r\nID : 1\r\nFormat : AVC\r\nFormat/Info : Advanced Video Codec\r\nFormat profile :   \r\nFormat settings, CABAC : Yes\r\nFormat settings, ReFrames : 4 frames\r\nCodec ID : V_MPEG4/ISO/AVC\r\nDuration : 50mn 0s\r\nBit rate : 4 835 Kbps\r\nWidth : 1 912 pixels\r\nHeight : 1 072 pixels\r\nDisplay aspect ratio : 16:9\r\nFrame rate mode : Constant\r\nFrame rate : 23.976 fps\r\nColor space : YUV\r\nChroma subsampling : 4:2:0\r\nBit depth : 8 bits\r\nScan type : Progressive\r\nBits/(Pixel*Frame) : 0.098\r\nStream size : 1.69 GiB (91%)\r\nLanguage : English\r\nDefault : Yes\r\nForced : No\r\nColor primaries : BT.709\r\nTransfer characteristics : BT.709\r\nMatrix coefficients : BT.709\r\n\r\nAudio\r\nID : 2\r\nFormat : AC-3\r\nFormat/Info : Audio Coding 3\r\nMode extension : CM (complete main)\r\nFormat settings, Endianness : Big\r\nCodec ID : A_AC3\r\nDuration : 50mn 0s\r\nBit rate mode : Constant\r\nBit rate : 384 Kbps\r\nChannel(s) : 6 channels\r\nChannel positions : Front: L C R, Side: L R, LFE\r\nSampling rate : 48.0 KHz\r\nBit depth : 16 bits\r\nCompression mode : Lossy\r\nStream size : 137 MiB (7%)\r\nLanguage : English\r\nDefault : Yes\r\nForced : No\r\n\r\nText\r\nID : 3\r\nFormat : UTF-8\r\nCodec ID : S_TEXT/UTF8\r\nCodec ID/Info : UTF-8 Plain Text\r\nLanguage : English\r\nDefault : No\r\nForced : No\r\n\r\n\r\n\r\n \nhttps://itunes.apple.com/de/tv-season/game-of-thrones-season-6/id1102936959","torrent":{"xt":"urn:btih:e776397110ff92a28830f9570c38a6ee1c5da304","amp;dn":"Game+Of+Thrones+Complete+Season+6+1080P+WEB-DL+DD5+1+H+264","amp;tr":["udp%3A%2F%2Ftracker.leechers-paradise.org%3A6969","udp%3A%2F%2Fzer0day.ch%3A1337","udp%3A%2F%2Fopen.demonii.com%3A1337","udp%3A%2F%2Ftracker.coppersurfer.tk%3A6969","udp%3A%2F%2Fexodus.desync.com%3A6969"],"infoHash":"e776397110ff92a28830f9570c38a6ee1c5da304","infoHashBuffer":{"type":"Buffer","data":[231,118,57,113,16,255,146,162,136,48,249,87,12,56,166,238,28,93,163,4]},"announce":[],"urlList":[]}}